<?xml version="1.0" encoding="UTF-8"?> <svg xmlns="http://www.w3.org/2000/svg" width="256" height="56" viewBox="0 0 256 56" fill="none"><path fill-rule="evenodd" clip-rule="evenodd" d="M18.8919 37.6571H17.6577L12.9695 21.8019H1.30359C4.11327 9.3218 15.2328 3.66112e-06 28.5228 3.66112e-06C33.3004 -0.00244816 37.9986 1.22661 42.1668 3.56934C46.3349 5.91206 49.8333 9.28985 52.3263 13.3788H25.5151L18.8919 37.6571ZM22.94 42.6168L29.844 18.833L54.8988 18.8341C55.9141 21.7814 56.4305 24.8784 56.4269 27.9968C56.4269 43.4578 43.9338 55.9916 28.523 55.9916C13.1122 55.9916 0.619074 43.4568 0.621094 28.0008V27.6725C0.621554 27.6093 0.623062 27.5461 0.624568 27.4829C0.626367 27.4075 0.628164 27.3321 0.628164 27.2571H8.27449L13.4525 42.6168H22.94Z" fill="#5633E7"></path><path fill-rule="evenodd" clip-rule="evenodd" d="M233.731 0.495117H189.282L177.923 42.6124H175.7L167.799 14.8649H151.747V24.2789H159.927L168.539 51.0355H184.837L196.69 9.91013H233.731V0.495117ZM97.3168 8.19474C93.7092 6.32025 89.5153 5.383 84.7348 5.383H68.8281V51.0355H84.7348C89.5153 51.0355 93.7092 50.0979 97.3168 48.2228C100.967 46.3476 103.771 43.7095 105.727 40.3084C107.726 36.8633 108.726 32.8519 108.725 28.2741C108.725 23.6963 107.725 19.6849 105.727 16.2399C103.771 12.7489 100.968 10.0672 97.3168 8.19474ZM95.4918 39.3275C92.8841 41.9437 89.1897 43.2518 84.4086 43.2518H77.955V13.1008H84.4086C89.189 13.1008 92.8834 14.4518 95.4918 17.1538C98.0995 19.8139 99.4033 23.52 99.4033 28.2721C99.4033 33.0242 98.0995 36.7093 95.4918 39.3275ZM131.525 14.2123C134.959 14.213 138.023 14.9544 140.716 16.4364C143.406 17.8702 145.608 20.0775 147.039 22.7752C148.56 25.4786 149.321 28.5963 149.321 32.1284C149.33 33.311 149.243 34.4923 149.06 35.6606H122.657C122.875 38.2727 123.788 40.3218 125.396 41.8079C127.004 43.294 128.981 44.0371 131.328 44.0371C134.718 44.0364 137.131 42.5756 138.565 39.6548H148.409C147.365 43.143 145.366 46.021 142.411 48.2886C139.456 50.5123 135.827 51.6242 131.523 51.6242C128.046 51.6242 124.917 50.8609 122.136 49.3343C119.398 47.7678 117.247 45.566 115.682 42.729C114.161 39.8946 113.4 36.6242 113.4 32.9178C113.399 29.1708 114.16 25.8788 115.682 23.0417C117.205 20.2074 119.335 18.0272 122.073 16.5013C124.812 14.9753 127.962 14.2123 131.525 14.2123ZM125.526 23.827C124.005 25.1786 123.07 27.0754 122.723 29.5173H139.865C139.822 27.1626 138.974 25.2877 137.322 23.8928C135.674 22.4534 133.654 21.7336 131.263 21.7336C129.002 21.7343 127.09 22.4321 125.526 23.827ZM228.421 16.5671C225.593 14.9979 222.442 14.213 218.968 14.2123C215.493 14.2117 212.343 14.9966 209.515 16.5671C206.688 18.0931 204.449 20.2732 202.8 23.1076C201.192 25.9446 200.388 29.2147 200.388 32.9178C200.388 36.6208 201.171 39.8912 202.735 42.729C204.344 45.566 206.539 47.7678 209.319 49.3343C212.101 50.8609 215.23 51.6242 218.707 51.6242C222.228 51.6242 225.4 50.8609 228.225 49.3343C231.052 47.8056 233.399 45.5187 235.006 42.729C236.7 39.8919 237.548 36.6215 237.548 32.9178C237.548 29.214 236.722 25.944 235.07 23.1076C233.523 20.3337 231.216 18.0637 228.421 16.5671ZM226.856 38.8047C225.987 40.4178 224.813 41.6387 223.336 42.4676C221.917 43.248 220.324 43.6532 218.707 43.6449C216.099 43.6449 213.926 42.729 212.188 40.897C210.493 39.0225 209.646 36.3628 209.646 32.9178C209.646 29.4728 210.515 26.835 212.253 25.0044C214.035 23.1299 216.23 22.1923 218.837 22.1916C221.445 22.1909 223.64 23.1285 225.422 25.0044C227.247 26.835 228.159 29.4728 228.16 32.9178C228.16 35.2293 227.725 37.1916 226.856 38.8047ZM238.67 9.91013V0.495117H255.956V51.0355H247.066V9.91013H238.67Z" fill="#5633E7"></path></svg> 